<svg xmlns="http://www.w3.org/2000/svg" viewBox="0 0 445.22 63">
  <path d="M318.93,41.7a27,27,0,0,0-3.5.47c-3.22.85-4.57,3-4.08,6.26.34,2.26.74,4.5,1.14,6.75a5,5,0,0,1-1.95,4.94c-2,1.69-6.73,2-8.92.59a4.37,4.37,0,0,1-2.24-4.26c.35-3.27.59-6.57,1.23-9.79a38.16,38.16,0,0,0-.13-16.59,52.69,52.69,0,0,1-1.09-8,5.58,5.58,0,0,1,3.55-5.66c2.51-1.15,5.29-1.51,7.79.14a4.5,4.5,0,0,1,1.9,4.92c-.29,1.4-.77,2.77-1.13,4.15-1.33,5.08.6,8.1,5.79,8.61a18.9,18.9,0,0,0,6-.54,4.7,4.7,0,0,0,3.59-4.95,23.67,23.67,0,0,0-1-5.18c-1.22-4.63.55-7.26,5.33-7.6a14.13,14.13,0,0,1,4,.32A4.45,4.45,0,0,1,339,21a31.24,31.24,0,0,1-.85,6.52,46,46,0,0,0-.38,18.88,42,42,0,0,1,.73,8.31c-.21,5.52-4.61,8.61-9.54,7a4.73,4.73,0,0,1-3.49-5.44c.29-2.52.61-5,.89-7.56.49-4.48-1.36-6.61-5.9-6.84-.51,0-1,0-1.52,0V41.7" transform="translate(-0.39 0)" />
  <path d="M434.75,40c-.53-3.63-1-6.88-1.46-10.15a61.8,61.8,0,0,1-.78-7.8c0-3,1.36-4.76,3.78-5.37,3-.74,6-1,8.25,1.55a5.93,5.93,0,0,1,1,3.72,33.48,33.48,0,0,1-.77,6.29c-1.16,5.61-.27,11.13.6,16.64,1,6.37-1.92,10.94-6.86,14.17-7.45,4.87-19.33,4-26.32-1.52-3.8-3-5.83-6.92-4.77-11.79,1.44-6.59.9-13.1-.18-19.63a23.54,23.54,0,0,1-.28-2.77c-.26-5.75,3.62-8.85,9.21-7.39,2.5.66,4.11,2.63,4.08,5.73a51.53,51.53,0,0,1-.85,8.31c-1,5.72-1.51,11.41.28,17.07,1.47,4.65,4.34,6.29,9.11,5.25a5.48,5.48,0,0,0,4.34-4.16c.73-2.75,1.1-5.6,1.57-8.14" transform="translate(-0.39 0)" />
  <path d="M173.77,62.07c-4.82,0-7.25-2.5-6.93-7.3a50.27,50.27,0,0,1,1.05-7,36.57,36.57,0,0,0-.06-15.85,37.66,37.66,0,0,1-1-8c0-5.79,5.07-9.05,10.45-6.87a4,4,0,0,1,2.67,4.43,42.35,42.35,0,0,1-1.08,4.42,34,34,0,0,0-1,5.19A2.7,2.7,0,0,0,179,33.23a2.77,2.77,0,0,0,2.52-.48,16.31,16.31,0,0,0,2.67-3.93c1.6-3.16,2.89-6.49,4.61-9.58s4.47-4,7.8-3.62c3.74.41,5.68,3.49,3.8,6.72-1.27,2.19-3.34,4-5.21,5.74s-3.94,3-5.59,4.75c-3.43,3.7-3.17,7.21.53,10.56,2.32,2.1,4.91,4,7,6.29a23.57,23.57,0,0,1,4,6.65c1,2.47-.37,4.44-3,5.2a8.52,8.52,0,0,1-9.28-3.13,36.73,36.73,0,0,1-3.31-6.52c-1-2.25-1.61-4.64-2.55-6.89-.62-1.49-1.75-2.65-3.56-2.13s-1.6,2.2-1.42,3.6a40.23,40.23,0,0,0,.92,4.21c.32,1.32.75,2.61,1,3.93,1,5.3-.86,7.52-6.19,7.49" transform="translate(-0.39 0)" />
  <path d="M222.79,37.66l.35.15c0,.5,0,1,.12,1.51.37,2.22,1.7,3.65,3.45,3.76a3.54,3.54,0,0,0,3.85-3.52,17.23,17.23,0,0,0-.77-6.39c-.85-2.65-3.42-2.9-4.93-.53a29.68,29.68,0,0,0-2.08,5m5.08-21.38c5.2,0,7.92,2.31,8.87,7.51.7,3.82,1.45,7.64,2.2,11.45a31,31,0,0,0,6.33,13.13,18.09,18.09,0,0,1,3,5.5c1.26,4-.83,7.77-4.66,8.36-5.67.87-8.72-1.09-9.38-5.52a7.64,7.64,0,0,1-.1-1c-.09-7.06-5.42-7.27-10.23-6.05a3.93,3.93,0,0,0-2,2.06,10.6,10.6,0,0,0-.78,3.43c-.55,5.11-2.26,6.85-7.33,7.28-4,.35-6.63-2-6.16-6.06a30.31,30.31,0,0,1,1.8-6.56,21.2,21.2,0,0,1,2.2-4.28,44.92,44.92,0,0,0,7.07-21.17c.49-6,3.14-8,9.21-8.07" transform="translate(-0.39 0)" />
  <path d="M133.92,37.68l.37.15c0,.42,0,.85.07,1.26.28,2.21,1.57,3.76,3.3,4a3.47,3.47,0,0,0,4.05-3.28,16.74,16.74,0,0,0-.75-6.63c-.83-2.63-3.45-2.87-5-.51a29.68,29.68,0,0,0-2.08,5M118.53,56.4c.55-1.94,1-3.92,1.69-5.8a23.39,23.39,0,0,1,2.28-4.52A47.19,47.19,0,0,0,130,23.47c.35-4.54,2.43-6.36,6.92-7,6.87-1,10.09,1.54,11.16,8.46.53,3.42,1.31,6.8,2,10.2a32,32,0,0,0,6.45,13.34,16.93,16.93,0,0,1,3,5.76,6.19,6.19,0,0,1-5.11,8.11c-4.8.83-8.19-1.27-9-5.56-.09-.5-.11-1-.16-1.51-.53-5.41-5.67-8.13-10.55-5.5a4.33,4.33,0,0,0-1.78,2,11.49,11.49,0,0,0-.71,3.44c-.47,5.79-3.37,7.36-8.94,7.15-3-.12-4.6-2.39-4.77-6" transform="translate(-0.39 0)" />
  <path d="M277.67,15.68c3.39.6,6.89.85,10.15,1.88,3.81,1.21,4.74,4,3.23,7.7-1.34,3.25-4.19,4-7.23,2.19a20,20,0,0,0-5.61-2.69c-3.44-.8-6.33.64-8.44,3.42-4.25,5.61-4.63,14.81-1.21,20.94,3.21,5.78,11.48,5.4,14.31,1a20,20,0,0,1,1.21-1.63c1.65-2.07,3.39-2.57,5.81-1.67a4.94,4.94,0,0,1,3.06,5.06,7.67,7.67,0,0,1-4,6.67,34.79,34.79,0,0,1-9,3.17,25.62,25.62,0,0,1-14.46-1.4,14.85,14.85,0,0,1-8.92-9.79,37,37,0,0,1-.34-22c2.19-7.33,7.79-11.5,16.31-12.22,1.69-.14,3.38-.17,5.07-.25l.07-.37" transform="translate(-0.39 0)" />
  <path d="M372,62.13c-5.24,0-6.91-2-5.73-7.16A22.88,22.88,0,0,1,373,43.81c3.19-3.15,6.62-6.07,9.68-9.33a18.25,18.25,0,0,0,3.57-5.73c1.23-3.15,0-4.56-3.35-4.09s-6.46,1.36-9.73,1.66c-4.1.38-6.45-2.81-5.3-6.76a4.15,4.15,0,0,1,4.21-3.36,18.25,18.25,0,0,1,4.79.35c4.88,1.31,9.71,1,14.58.08a25,25,0,0,1,3.27-.41c4.49-.22,7.24,2.46,6.46,6.91a17.72,17.72,0,0,1-3.06,7.08c-1.65,2.28-4.06,4-6.14,6-2.44,2.33-5.2,4.42-7.22,7.07a19.39,19.39,0,0,0-3,7.12c-.57,2.33.47,3.39,2.87,3.31s4.67-.56,7-.87a43.48,43.48,0,0,1,5.76-.73c2.84,0,4.49,2,4.53,5,0,2.68-1.49,4.58-4.2,4.75a24,24,0,0,1-6-.36c-5.42-1.06-10.78-.34-16.16.22l-3.53.36" transform="translate(-0.39 0)" />
  <path d="M94.42,54.39c.8-6.11,1.65-12.22,2.37-18.34A51.91,51.91,0,0,0,97,29.22c0-2.94-1.25-3.82-4.23-3.49a31.38,31.38,0,0,1-6.27.41c-3.08-.29-4.47-2.38-4.12-5.52.33-3,1.81-4.22,5-4,2.19.12,4.39.32,6.56.62a57.24,57.24,0,0,0,17.16-.36,17.75,17.75,0,0,1,5.79.21c2.44.42,3.57,2.6,3.17,5.5s-1.62,3.81-4.47,3.62c-1.77-.12-3.53-.4-5.3-.5-3.56-.2-5.38,1.29-5.27,4.85.11,3.36.78,6.7,1.21,10q.9,7.15,1.8,14.3a7.3,7.3,0,0,1,0,1C108,60.63,106,63,102.09,63c-4.83,0-7.43-2.57-7.51-7.32,0-.42,0-.85,0-1.27l-.16,0" transform="translate(-0.39 0)" />
  <path d="M346.53,54.88c.35-2,.56-4,1.09-6a34.79,34.79,0,0,0-.1-17.55,57.89,57.89,0,0,1-1.27-8.25c-.22-2.49.54-4.94,2.84-6.09a8.32,8.32,0,0,1,8.49.17,6.44,6.44,0,0,1,2.16,4.25,17.22,17.22,0,0,1-.69,5.75,49.21,49.21,0,0,0-.37,19.64,53.47,53.47,0,0,1,.93,8.3c0,5.58-5.08,8.47-10,5.77-2.36-1.29-3.14-3.41-3.07-6" transform="translate(-0.39 0)" />
  <path d="M51.14,29.82A1.08,1.08,0,0,0,50,28.71a1,1,0,0,0-1,1.12,1.05,1.05,0,0,0,1.17,1,1,1,0,0,0,1-1.06m3.1,3.67a1.1,1.1,0,0,0,1.15-1.08,1.11,1.11,0,0,0-1.16-1.09,1,1,0,0,0-1.08,1,1.08,1.08,0,0,0,1.09,1.14m-8.72-.9a1.16,1.16,0,0,0,1.13-1.13,1.06,1.06,0,0,0-1.13-1.08,1.24,1.24,0,0,0-1.15,1.13,1.1,1.1,0,0,0,1.15,1.07m11.63,5.11a1.06,1.06,0,0,0,1.1-1A1.12,1.12,0,1,0,56,36.55a1.17,1.17,0,0,0,1.13,1.14m4.05.41a1.1,1.1,0,0,0-1.08,1.15,1.16,1.16,0,0,0,1.17,1.08,1.12,1.12,0,1,0-.09-2.23m3.2-21.87c0,4.88.1,9.76,0,14.63-.12,4.39-.46,8.78-.79,13.16a59.75,59.75,0,0,0,.48,13.15,13.6,13.6,0,0,1,0,3.91c-.26,1.73-1.67,2.46-3.13,1.5-2.36-1.56-5-2-7.65-2.57a24.84,24.84,0,0,1-9.64-4.52,2.24,2.24,0,0,1-.74-1.39c-.59-4.22-.18-8.43.08-12.66a88.76,88.76,0,0,0-.13-11.8,74.22,74.22,0,0,1,.09-13,33.13,33.13,0,0,0,0-3.53c0-1.61-.07-3.21,0-4.82,0-1.17.85-1.72,1.87-1.2A32.38,32.38,0,0,0,52,9.4a28.86,28.86,0,0,1,4.76,1.81c1.79.8,3.53,1.72,5.29,2.59a8,8,0,0,1,1.64.88,7.25,7.25,0,0,1,1,1.41l-.31.14" transform="translate(-0.39 0)" />
  <path d="M18.56,27.82a1,1,0,0,0-1.07,1.05A1.08,1.08,0,0,0,18.6,30a1.11,1.11,0,0,0,1.14-1.1,1.14,1.14,0,0,0-1.18-1.07M3.3,38.85a1.14,1.14,0,0,0-1.16,1.07,1.19,1.19,0,0,0,1.1,1.16A1.31,1.31,0,0,0,4.41,40,1.16,1.16,0,0,0,3.3,38.85m11.82-6.34a1.1,1.1,0,0,0,1.17-1.05,1,1,0,0,0-1.1-1.11A1.16,1.16,0,0,0,14,31.42a1,1,0,0,0,1.1,1.09M7,42.94a1.12,1.12,0,0,0,1.2-1A1.17,1.17,0,0,0,7,40.74,1.1,1.1,0,1,0,7,42.94m5.84-6.51a1.11,1.11,0,0,0,1.12-1.11,1.14,1.14,0,0,0-1.15-1.09,1.16,1.16,0,0,0-1.13,1.12,1.14,1.14,0,0,0,1.16,1.08m-2.32,4a1.18,1.18,0,0,0,1.21-1,1.27,1.27,0,0,0-1.08-1.19,1.23,1.23,0,0,0-1.26,1.11,1.15,1.15,0,0,0,1.13,1.11M20.65,15.8c0,2.23-.11,4.46,0,6.68.18,3.07.63,6.13.81,9.2a159.78,159.78,0,0,1,.13,19.66c-.2,3.1,0,6.22.1,9.34,0,1.54-.59,2.06-2.06,1.54a20.88,20.88,0,0,1-5.59-2.83,12.69,12.69,0,0,0-3.45-1.62C8.79,57.15,6.9,56.7,5,56.17c-.41-.12-.81-.26-1.21-.4-2.52-.93-3.22-2-3.07-4.68.06-1,0-2.09,0-3.14Q.92,41.46,1,35c0-1.9-.09-3.81.1-5.69A65.64,65.64,0,0,0,.48,12.22a9.28,9.28,0,0,1,.07-3c.36-2,1.65-2.91,3.63-2.44A52.15,52.15,0,0,1,9.61,8.46c1.82.65,3.59,1.42,5.38,2.14l4.45,1.82a2.11,2.11,0,0,1,1.44,2.4,8.52,8.52,0,0,0,0,1h-.23" transform="translate(-0.39 0)" />
  <path d="M30,34.87a1,1,0,0,0,1-1,1.12,1.12,0,0,0-1.14-1.19,1,1,0,0,0-1.12,1A1.17,1.17,0,0,0,30,34.87m9.14.19A1.15,1.15,0,0,0,40.31,34a1.06,1.06,0,0,0-1.14-1.06A1.22,1.22,0,0,0,38,34a1.09,1.09,0,0,0,1.16,1.06m-4.39,1.35a1.05,1.05,0,0,0,1.11-1.1,1.07,1.07,0,0,0-1.17-1,1,1,0,0,0-1.05,1,1,1,0,0,0,1.11,1.1m-8.07-5.29A1.19,1.19,0,0,0,25.53,30a1.08,1.08,0,0,0-1.08,1.16,1.19,1.19,0,0,0,1.22,1,1.08,1.08,0,0,0,1-1.1m-3.51,14.7a131.7,131.7,0,0,0-.83-19.93,68.39,68.39,0,0,1-.06-8.34c0-1.08.07-2.16,0-3.24,0-.8.31-1.28,1.08-1.37,4.92-.58,9-3.22,13.42-5.18.9-.4,1.76-.89,2.67-1.26,1.18-.48,2,0,2,1.31,0,3.64,0,7.28-.21,10.91a97.26,97.26,0,0,0,.14,10.81,118.52,118.52,0,0,1,.07,12.28c-.17,3.67-.6,7.33-.14,11,.2,1.59-.28,2.36-2.05,3.27-.83.43-1.83.51-2.71.85-1.12.44-2.19,1-3.28,1.49-2,.92-3.9,1.87-5.86,2.76-.86.39-1.77.69-2.67,1s-1.41,0-1.5-.93c-.14-1.67-.28-3.34-.27-5,0-3.48.14-7,.22-10.43" transform="translate(-0.39 0)" />
  <path d="M68.32,1.2a9.57,9.57,0,0,1-.75,1.25c-.42.5-.91.94-1.37,1.41a.89.89,0,0,0,0,1.38c.48.5,1,1,1.44,1.48a1.39,1.39,0,0,1,.11,2,1.42,1.42,0,0,1-2-.14c-.39-.35-.75-.74-1.12-1.1-.91-.89-1.16-.89-2.1,0-.38.37-.73.75-1.13,1.1a1.39,1.39,0,0,1-2,.07,1.36,1.36,0,0,1,.11-1.95c.39-.44.83-.84,1.24-1.27.73-.77.73-1.12,0-1.91-.41-.43-.85-.83-1.24-1.26A1.28,1.28,0,0,1,59.34.4a1.39,1.39,0,0,1,2,0c.48.4.89.87,1.34,1.3.75.71,1.09.72,1.83,0A8.71,8.71,0,0,1,65.9.39a2.26,2.26,0,0,1,1.54-.2c.34.08.56.62.88,1" transform="translate(-0.39 0)" />
  <path d="M70.82,31.08a1.32,1.32,0,0,1-1.37-1.26,1.34,1.34,0,0,1,1.31-1.43,1.32,1.32,0,0,1,1.37,1.26,1.35,1.35,0,0,1-1.31,1.43" transform="translate(-0.39 0)" />
  <path d="M65.11,38.33A1.46,1.46,0,0,1,66.55,37a1.34,1.34,0,0,1,1.34,1.29,1.47,1.47,0,0,1-1.44,1.34,1.35,1.35,0,0,1-1.34-1.29" transform="translate(-0.39 0)" />
  <path d="M70.78,23.25a1.32,1.32,0,1,1,0,2.65,1.32,1.32,0,0,1,0-2.65" transform="translate(-0.39 0)" />
  <path d="M68.69,15.23a1.36,1.36,0,0,1-1.29,1.34A1.41,1.41,0,0,1,66,15.28a1.35,1.35,0,0,1,1.29-1.33,1.37,1.37,0,0,1,1.44,1.28" transform="translate(-0.39 0)" />
  <path d="M64.41,12.36a1.32,1.32,0,0,1-1.34-1.28,1.29,1.29,0,0,1,1.29-1.32,1.31,1.31,0,0,1,1.39,1.32,1.33,1.33,0,0,1-1.34,1.28" transform="translate(-0.39 0)" />
  <path d="M70.49,20a1.32,1.32,0,0,1-1.36,1.27,1.37,1.37,0,0,1-1.34-1.4,1.33,1.33,0,0,1,1.41-1.21A1.31,1.31,0,0,1,70.49,20" transform="translate(-0.39 0)" />
  <path d="M69.54,33.09a1.4,1.4,0,0,1,1.37,1.29,1.37,1.37,0,0,1-1.31,1.33,1.44,1.44,0,0,1-1.43-1.23,1.42,1.42,0,0,1,1.38-1.39" transform="translate(-0.39 0)" />
</svg>
